PathFileType	4	(X/Y/Z)	 s09c0001.trc
DataRate	CameraRate	NumFrames	NumMarkers	Units	OrigDataRate	OrigDataStartFrame	OrigNumFrames
200	200	6	49	mm	200	1001	2000
Frame#	Time	racr			lacr			c7			jug			rlel			rdr			llel			ldr			s2			lic			ric			lasi			rasi			rpsi			lpsi			rgt			lgt			rth1			rth2			rth3			rth4			rlfc			rmfc			rsh1			rsh2			rsh3			rsh4			rlmal			rmmal			rcal			rtoe			rmt5			rmt1			lth1			lth2			lth4			lth3			llfc			lmfc			llmal			lmmal			lcal			lmt1			lmt5			lsh1			lsh2			lsh3			lsh4			ltoe			
		X1	Y1	Z1	X2	Y2	Z2	X3	Y3	Z3	X4	Y4	Z4	X5	Y5	Z5	X6	Y6	Z6	X7	Y7	Z7	X8	Y8	Z8	X9	Y9	Z9	X10	Y10	Z10	X11	Y11	Z11	X12	Y12	Z12	X13	Y13	Z13	X14	Y14	Z14	X15	Y15	Z15	X16	Y16	Z16	X17	Y17	Z17	X18	Y18	Z18	X19	Y19	Z19	X20	Y20	Z20	X21	Y21	Z21	X22	Y22	Z22	X23	Y23	Z23	X24	Y24	Z24	X25	Y25	Z25	X26	Y26	Z26	X27	Y27	Z27	X28	Y28	Z28	X29	Y29	Z29	X30	Y30	Z30	X31	Y31	Z31	X32	Y32	Z32	X33	Y33	Z33	X34	Y34	Z34	X35	Y35	Z35	X36	Y36	Z36	X37	Y37	Z37	X38	Y38	Z38	X39	Y39	Z39	X40	Y40	Z40	X41	Y41	Z41	X42	Y42	Z42	X43	Y43	Z43	X44	Y44	Z44	X45	Y45	Z45	X46	Y46	Z46	X47	Y47	Z47	X48	Y48	Z48	X49	Y49	Z49	
1001	5.0050	281.623121	1353.548579	380.108948	283.111520	1335.507722	-12.721144	229.499516	1402.290570	180.533228	353.410638	1351.490273	179.583513	297.036144	1093.465458	446.965854	362.360300	879.979258	577.265780	273.494205	1051.370262	-47.889057	398.649151	896.524247	-195.989481	221.190516	941.392801	184.290584	351.734719	990.986635	47.762395	339.947208	1002.886164	337.120562	409.287796	955.086025	78.988000	399.694257	966.052219	318.304992	224.787436	978.826137	243.866790	225.020973	974.957249	133.159991	325.409325	846.928590	385.518251	329.673906	836.825379	10.335419	348.509412	716.363130	381.405628	364.137890	630.867990	367.902465	332.425069	548.530969	358.443049	394.765535	629.399969	348.129207	318.901833	451.002303	334.713321	301.616875	431.005273	236.719702	278.102117	361.165838	367.889354	302.236731	274.090186	359.538277	279.207665	189.311727	361.174698	327.920033	276.907279	329.544810	276.782177	86.755416	360.318872	286.115319	93.499225	283.759458	219.167854	32.074918	318.051031	471.943081	86.072468	354.335033	388.187896	49.258732	407.099704	401.014973	39.273872	297.147344	340.082208	710.661020	8.843710	355.133728	628.938988	25.807028	390.865144	626.905995	39.682002	326.526391	543.748994	34.474743	308.678785	449.193205	46.855961	317.465155	429.051831	139.953506	268.591710	84.951636	21.749790	291.161414	96.195523	92.431049	218.699327	26.704062	68.090977	406.309435	43.961174	87.239756	381.454416	33.854251	-18.428177	277.910321	355.143673	17.353694	295.861471	270.358784	21.249430	274.407409	198.313454	14.740756	322.959356	270.778443	50.388166	472.549347	79.202220	36.481764	
1002	5.0100	281.639733	1353.545132	380.098342	283.093195	1335.489466	-12.725722	229.486776	1402.289897	180.519252	353.381762	1351.488109	179.577327	297.001344	1093.469587	446.966037	362.326742	879.959166	577.245210	273.489184	1051.331170	-47.899910	398.644657	896.509630	-196.004501	221.196660	941.395760	184.286329	351.726523	990.987606	47.754843	339.919056	1002.881139	337.146265	409.296984	955.070692	78.990227	399.711314	966.053918	318.305494	224.786749	978.821247	243.866318	225.026235	974.951092	133.159092	325.425856	846.912002	385.526281	329.673175	836.804147	10.352476	348.530541	716.363541	381.409443	364.164434	630.858434	367.897787	332.351095	548.457378	358.399446	394.774683	629.397775	348.127571	318.900259	450.994548	334.721944	301.593552	431.011335	236.718049	278.092216	361.162236	367.884599	302.210626	274.082233	359.559260	279.198213	189.321293	361.187619	327.920499	276.907923	329.544723	276.765198	86.758120	360.308398	286.153895	93.483698	283.764941	219.189009	32.050286	318.031401	471.924099	86.075973	354.332834	388.181184	49.254220	407.099872	401.011846	39.261174	297.142642	340.094200	710.648686	8.840612	355.133770	628.937955	25.808359	390.875282	626.888734	39.680520	326.525371	543.709451	34.475800	308.659172	449.103810	46.912770	317.488198	429.056972	139.943891	268.589823	84.938959	21.765575	291.169376	96.192172	92.431735	218.692481	26.711257	68.095070	406.284687	43.965737	87.230291	381.463454	33.854237	-18.409379	277.910591	355.143557	17.353895	295.812677	270.350658	21.241577	274.318090	198.314539	14.732631	322.920777	270.744254	50.381619	472.551056	79.204119	36.484912	
1003	5.0150	281.625173	1353.546859	380.107563	283.066368	1335.473050	-12.715866	229.470902	1402.281894	180.533060	353.374493	1351.478993	179.577169	296.974768	1093.470721	446.938902	362.266141	879.944486	577.238704	273.468599	1051.332891	-47.900065	398.628176	896.509633	-196.011831	221.237163	941.379152	184.327343	351.736757	990.981995	47.760400	339.943934	1002.871798	337.127112	409.278018	955.073520	78.984623	399.697385	966.047040	318.302864	224.792713	978.824120	243.862298	225.017612	974.946265	133.166297	325.442223	846.915367	385.514408	329.666769	836.819186	10.334417	348.548544	716.350086	381.415091	364.164206	630.861012	367.907842	332.343255	548.453754	358.405913	394.773782	629.400425	348.128466	318.902886	451.011077	334.724511	301.600705	431.003920	236.706540	278.100755	361.168398	367.893581	302.216671	274.069481	359.544696	279.206647	189.316056	361.181403	327.881278	276.900109	329.541950	276.781838	86.747163	360.325278	286.146217	93.487763	283.768717	219.167137	32.046712	318.029146	471.933738	86.074739	354.334987	388.187223	49.264102	407.102400	401.029388	39.259289	297.149846	340.094193	710.666315	8.846088	355.127796	628.936062	25.815694	390.898408	626.898704	39.694492	326.528547	543.716306	34.456678	308.641479	449.111513	46.918105	317.452553	429.051077	139.962761	268.584097	84.946333	21.772541	291.187197	96.195116	92.440245	218.712794	26.706650	68.091947	406.285506	43.974678	87.232127	381.409226	33.827391	-18.423544	277.906435	355.131813	17.348389	295.815663	270.344978	21.245562	274.318910	198.309359	14.780494	322.941345	270.767819	50.352627	472.556235	79.196040	36.458528	
1004	5.0200	281.613306	1353.543611	380.092518	283.031821	1335.460907	-12.713370	229.485449	1402.279642	180.521253	353.373867	1351.472970	179.566736	296.957787	1093.453668	446.938489	362.224844	879.929287	577.234869	273.473477	1051.306989	-47.886354	398.615807	896.500005	-195.999816	221.239235	941.378067	184.332605	351.732201	990.987381	47.749707	339.953299	1002.882512	337.121407	409.281598	955.058564	78.968507	399.714418	966.052405	318.297769	224.810964	978.819437	243.871372	225.042987	974.929288	133.152927	325.447530	846.919179	385.530553	329.671723	836.817299	10.347830	348.541441	716.353788	381.426120	364.175927	630.854825	367.901694	332.303849	548.394899	358.417679	394.800591	629.378777	348.112119	318.918864	451.005101	334.733582	301.593000	431.010563	236.718517	278.108728	361.167592	367.902210	302.234329	274.091769	359.548451	279.209768	189.327459	361.189848	327.922013	276.909626	329.547653	276.771241	86.747363	360.315672	286.138893	93.481140	283.782608	219.189213	32.049557	318.031215	471.852923	86.270741	354.437101	388.209953	49.259258	407.115474	400.996778	39.268928	297.122441	340.091439	710.656579	8.843138	355.124435	628.936258	25.796423	390.881100	626.897439	39.690652	326.543966	543.709412	34.471821	308.661726	449.192364	46.856820	317.452490	429.042905	139.961825	268.586156	84.955304	21.767335	291.190339	96.185570	92.446641	218.709648	26.724548	68.099763	406.293117	43.985220	87.240255	381.418263	33.827377	-18.404746	277.903075	355.145088	17.342103	295.831343	270.366047	21.231693	274.365475	198.319383	14.705006	322.923537	270.763671	50.384514	472.532009	79.148139	36.479304	
1005	5.0250	281.619341	1353.533821	380.085072	283.020559	1335.448522	-12.707388	229.472266	1402.280988	180.531476	353.381768	1351.472304	179.559672	296.917753	1093.449670	446.921176	362.183833	879.922938	577.207624	273.453315	1051.290873	-47.884366	398.592414	896.495736	-195.993680	221.241974	941.387097	184.352504	351.730897	990.969885	47.753988	339.947937	1002.868783	337.126328	409.288303	955.057030	78.976239	399.720649	966.048897	318.306951	224.817377	978.814516	243.865290	225.030192	974.947398	133.179749	325.456117	846.930300	385.528572	329.672252	836.825754	10.331404	348.566627	716.359288	381.421004	364.179292	630.869322	367.919596	332.338517	548.392747	358.419478	394.798356	629.386333	348.107905	318.918861	451.005102	334.733576	301.609444	431.001852	236.730681	278.120776	361.175904	367.908923	302.242466	274.082951	359.563960	279.210645	189.311421	361.186043	327.931751	276.917320	329.565293	276.777109	86.752495	360.316488	286.143052	93.480479	283.778458	219.188807	32.037187	318.036322	471.937616	86.067390	354.343067	388.188723	49.255980	407.108615	401.002141	39.261103	297.142026	340.094671	710.671063	8.852138	355.132559	628.945193	25.809920	390.915845	626.886185	39.703909	326.526908	543.711428	34.469370	308.676847	449.196669	46.856743	317.465081	429.051909	139.953418	268.593635	84.929772	21.763733	291.189708	96.187044	92.450296	218.716084	26.715023	68.100136	406.260914	43.999531	87.232972	381.489860	33.834077	-18.411142	277.910562	355.144566	17.349140	295.814543	270.343166	21.242386	274.315522	198.313801	14.752851	322.928019	270.756028	50.368070	472.523054	79.208479	36.471120	
1006	5.0300	281.611938	1353.545549	380.096582	282.995533	1335.430871	-12.714102	229.470847	1402.274294	180.535897	353.366593	1351.463496	179.559470	296.900993	1093.443542	446.903677	362.142791	879.899366	577.206671	273.440614	1051.288209	-47.879360	398.593032	896.487175	-195.992350	221.262800	941.375655	184.338035	351.732394	990.973500	47.749200	339.975015	1002.881016	337.131629	409.273006	955.064367	78.947714	399.735340	966.055012	318.300983	224.814382	978.813515	243.878330	225.026306	974.946278	133.177568	325.466816	846.924458	385.535319	329.672594	836.824238	10.341695	348.572382	716.380281	381.415994	364.205268	630.851228	367.905706	332.330138	548.400732	358.427722	394.805736	629.398359	348.124566	318.918230	451.000282	334.735497	301.610008	431.018909	236.710442	278.136740	361.157816	367.897673	302.242308	274.082768	359.563429	279.215399	189.322877	361.192982	327.934709	276.898690	329.556948	276.775327	86.757068	360.319756	286.139420	93.494706	283.770911	219.187369	32.036446	318.038064	471.940717	86.078870	354.338608	388.209525	49.244948	407.091860	401.012935	39.274426	297.138526	340.100542	710.664313	8.846686	355.141958	628.934741	25.821847	390.869226	626.897427	39.665185	326.543550	543.714834	34.463421	308.676851	449.196668	46.856739	317.486043	429.063266	139.967621	268.605579	84.947707	21.768353	291.180978	96.195226	92.441285	218.702217	26.704756	68.092050	406.293361	43.971719	87.236771	381.431817	33.840805	-18.425809	277.893339	355.143290	17.348950	295.832324	270.362902	21.231545	274.365103	198.316178	14.725709	322.944217	270.767693	50.360096	472.548852	79.179098	36.443535	
